<svg width="20.000000" height="20.000000" viewBox="0 0 20 20" fill="none" xmlns="http://www.w3.org/2000/svg" xmlns:xlink="http://www.w3.org/1999/xlink">
	<desc>
			Created with Pixso.
	</desc>
	<defs>
		<clipPath id="clip2_15595">
			<rect id="book 1" width="20.000000" height="20.000000" fill="white" fill-opacity="0"/>
		</clipPath>
	</defs>
	<rect id="book 1" width="20.000000" height="20.000000" fill="#FFFFFF" fill-opacity="0"/>
	<g clip-path="url(#clip2_15595)">
		<path id="Vector" d="M0.01 17.95C0.01 13.04 0.01 8.13 0.01 3.22C0.02 3.18 0.03 3.13 0.04 3.08C0.25 1.93 1.17 1.16 2.34 1.16C3.05 1.16 3.76 1.16 4.47 1.16C4.51 1.16 4.55 1.16 4.59 1.16C4.59 1.05 4.58 0.95 4.59 0.86C4.6 0.5 4.78 0.24 5.11 0.08C5.18 0.05 5.25 0.04 5.32 0.02C5.4 0.02 5.49 0.02 5.57 0.02C5.58 0.02 5.59 0.03 5.6 0.03C6.04 0.13 6.3 0.45 6.3 0.9C6.3 0.98 6.3 1.07 6.3 1.15C8.79 1.15 11.25 1.15 13.73 1.15C13.73 1.05 13.73 0.95 13.73 0.85C13.75 0.52 13.9 0.26 14.2 0.11C14.28 0.07 14.37 0.05 14.46 0.02C14.54 0.02 14.63 0.02 14.71 0.02C14.72 0.02 14.73 0.03 14.74 0.03C15.17 0.13 15.44 0.45 15.44 0.9C15.44 0.98 15.44 1.07 15.44 1.16C15.49 1.16 15.53 1.16 15.56 1.16C16.29 1.16 17.02 1.16 17.75 1.16C18.73 1.17 19.59 1.79 19.89 2.72C19.95 2.88 19.97 3.06 20.01 3.24C20.01 8.14 20.01 13.04 20.01 17.93C20.01 17.96 20 17.99 19.99 18.02C19.85 18.93 19.34 19.56 18.47 19.88C18.3 19.95 18.11 19.97 17.93 20.01C12.65 20.01 7.37 20.01 2.09 20.01C2.07 20 2.05 20 2.03 20C1.08 19.85 0.45 19.33 0.13 18.43C0.07 18.28 0.05 18.12 0.01 17.95ZM6.3 2.88C6.3 2.98 6.31 3.08 6.29 3.17C6.28 3.28 6.27 3.39 6.22 3.5C6.07 3.87 5.67 4.08 5.27 4C4.88 3.92 4.59 3.58 4.59 3.18C4.58 3.08 4.59 2.97 4.59 2.87C4.02 2.87 3.47 2.87 2.92 2.87C2.22 2.87 1.73 3.36 1.73 4.06C1.73 8.41 1.73 12.76 1.73 17.11C1.73 17.8 2.22 18.29 2.92 18.3C7.65 18.3 12.38 18.3 17.11 18.3C17.81 18.3 18.3 17.81 18.3 17.12C18.3 12.76 18.3 8.41 18.3 4.06C18.3 3.37 17.81 2.87 17.12 2.87C16.59 2.87 16.07 2.87 15.55 2.87C15.51 2.87 15.48 2.87 15.45 2.87C15.45 2.98 15.45 3.08 15.45 3.18C15.43 3.62 15.09 3.98 14.66 4.02C14.22 4.05 13.83 3.75 13.75 3.31C13.73 3.17 13.73 3.03 13.73 2.87C11.25 2.88 8.78 2.88 6.3 2.88Z" fill="#FFFFFF" fill-opacity="1.000000" fill-rule="nonzero"/>
		<path id="Vector" d="M9.4 12.88C9.42 12.85 9.44 12.81 9.47 12.77C10.91 11.33 12.35 9.89 13.79 8.45C14.08 8.16 14.44 8.08 14.78 8.24C15.29 8.46 15.45 9.12 15.09 9.56C15.06 9.6 15.03 9.63 15 9.66C13.34 11.32 11.68 12.98 10.02 14.64C9.7 14.96 9.28 15.02 8.93 14.81C8.87 14.76 8.8 14.71 8.75 14.66C7.69 13.61 6.64 12.56 5.59 11.5C5.17 11.07 5.25 10.4 5.77 10.12C6.11 9.93 6.51 10 6.8 10.29C7.19 10.68 7.58 11.07 7.97 11.46C8.41 11.9 8.85 12.34 9.3 12.79C9.32 12.81 9.35 12.83 9.4 12.88Z" fill="#FFFFFF" fill-opacity="1.000000" fill-rule="nonzero"/>
	</g>
</svg>
