<svg width="19.000000" height="18.000000" viewBox="0 0 19 18" fill="none" xmlns="http://www.w3.org/2000/svg" xmlns:xlink="http://www.w3.org/1999/xlink">
	<desc>
			Created with Pixso.
	</desc>
	<defs/>
	<rect id="Frame 37" width="19.000000" height="17.169624" fill="#FFFFFF" fill-opacity="0"/>
	<path id="Vector" d="M18.71 15.63L14.02 11.38C15.23 10.13 15.89 8.56 15.89 6.93C15.89 3.1 12.32 0 7.94 0C3.56 0 0 3.1 0 6.93C0 10.75 3.56 13.86 7.94 13.86C9.59 13.86 11.15 13.43 12.49 12.6L17.21 16.89C17.41 17.07 17.67 17.16 17.96 17.16C18.23 17.16 18.48 17.08 18.68 16.91C19.09 16.57 19.1 15.99 18.71 15.63ZM7.94 1.8C11.18 1.8 13.81 4.1 13.81 6.93C13.81 9.75 11.18 12.05 7.94 12.05C4.7 12.05 2.07 9.75 2.07 6.93C2.07 4.1 4.7 1.8 7.94 1.8Z" fill="#343434" fill-opacity="1.000000" fill-rule="nonzero"/>
</svg>
