<svg width="20.000000" height="20.000000" viewBox="0 0 20 20" fill="none" xmlns="http://www.w3.org/2000/svg" xmlns:xlink="http://www.w3.org/1999/xlink">
	<desc>
			Created with Pixso.
	</desc>
	<defs>
		<clipPath id="clip2_15496">
			<rect id="youtube 1" width="20.000000" height="20.000000" fill="white" fill-opacity="0"/>
		</clipPath>
	</defs>
	<g opacity="0.500000">
		<rect id="youtube 1" width="20.000000" height="20.000000" fill="#FFFFFF" fill-opacity="0"/>
		<g clip-path="url(#clip2_15496)">
			<path id="Vector" d="M18.97 5.31C18.76 4.51 18.12 3.87 17.32 3.66C15.85 3.25 9.99 3.25 9.99 3.25C9.99 3.25 4.12 3.25 2.65 3.64C1.86 3.86 1.21 4.51 1 5.31C0.61 6.78 0.61 9.82 0.61 9.82C0.61 9.82 0.61 12.88 1 14.33C1.21 15.13 1.85 15.76 2.65 15.98C4.13 16.38 9.99 16.38 9.99 16.38C9.99 16.38 15.85 16.38 17.32 16C18.12 15.78 18.76 15.15 18.97 14.34C19.36 12.88 19.36 9.83 19.36 9.83C19.36 9.83 19.38 6.78 18.97 5.31ZM8.12 12.63L8.12 7.01L13 9.82L8.12 12.63Z" fill="#000000" fill-opacity="1.000000" fill-rule="nonzero"/>
		</g>
	</g>
</svg>
