<?xml version="1.0" standalone="no"?>
<!DOCTYPE svg PUBLIC "-//W3C//DTD SVG 20010904//EN"
 "http://www.w3.org/TR/2001/REC-SVG-20010904/DTD/svg10.dtd">
<svg version="1.0" xmlns="http://www.w3.org/2000/svg"
 width="312.000000pt" height="172.000000pt" viewBox="0 0 312.000000 172.000000"
 preserveAspectRatio="xMidYMid meet">

<g transform="translate(0.000000,172.000000) scale(0.100000,-0.100000)"
fill="#000000" stroke="none">
<path d="M1130 1504 c-25 -7 -55 -13 -67 -13 -21 -1 -34 -21 -14 -21 5 0 17
-8 27 -17 15 -15 16 -45 9 -363 -7 -317 -6 -348 10 -363 37 -38 93 -9 131 65
14 27 23 55 21 61 -2 6 -9 -4 -16 -21 -15 -35 -39 -49 -48 -26 -6 15 11 445
24 627 7 99 9 96 -77 71z"/>
<path d="M1340 1490 c0 -5 7 -10 15 -10 11 0 15 -11 15 -40 0 -22 5 -40 10
-40 6 0 10 18 10 40 0 33 3 40 20 40 11 0 20 5 20 10 0 6 -20 10 -45 10 -25 0
-45 -4 -45 -10z"/>
<path d="M1460 1495 c0 -4 7 -20 16 -36 8 -17 13 -37 10 -45 -3 -8 1 -14 8
-14 11 0 56 76 56 95 0 14 -19 2 -25 -15 -3 -11 -12 -20 -20 -20 -7 0 -15 9
-18 20 -4 17 -27 29 -27 15z"/>
<path d="M1590 1450 c0 -27 5 -50 10 -50 6 0 10 6 10 14 0 8 15 17 35 20 28 6
35 11 35 30 0 26 -17 36 -61 36 -28 0 -29 -1 -29 -50z m70 15 c0 -9 -9 -15
-25 -15 -16 0 -25 6 -25 15 0 9 9 15 25 15 16 0 25 -6 25 -15z"/>
<path d="M1728 1489 c-26 -15 -23 -65 5 -83 50 -33 105 21 72 70 -16 25 -48
31 -77 13z m62 -45 c0 -33 -2 -35 -27 -32 -47 5 -45 68 2 68 22 0 25 -4 25
-36z"/>
<path d="M1850 1450 c0 -38 4 -50 15 -50 11 0 15 11 15 40 0 36 3 40 25 40 23
0 25 -4 25 -40 0 -22 5 -40 10 -40 6 0 10 23 10 50 l0 50 -50 0 -50 0 0 -50z"/>
<path d="M1990 1450 l0 -50 43 2 c36 1 38 2 10 5 -20 3 -33 10 -33 19 0 9 11
14 33 15 l32 1 -32 9 c-41 12 -43 29 -3 29 17 0 30 5 30 10 0 6 -18 10 -40 10
l-40 0 0 -50z"/>
<path d="M2110 1450 c0 -47 12 -66 23 -36 3 7 19 16 36 19 24 5 31 12 31 31 0
26 -16 36 -61 36 -28 0 -29 -1 -29 -50z m70 15 c0 -9 -9 -15 -25 -15 -16 0
-25 6 -25 15 0 9 9 15 25 15 16 0 25 -6 25 -15z"/>
<path d="M2248 1450 c-16 -49 -14 -55 14 -45 10 4 13 16 10 35 -3 18 0 30 7
30 11 0 13 -6 15 -45 1 -11 9 -21 19 -23 16 -3 16 -1 -1 45 -24 65 -44 67 -64
3z"/>
<path d="M2360 1491 c0 -5 9 -11 20 -14 15 -4 20 -14 20 -41 0 -20 5 -36 11
-36 5 0 9 8 8 18 -4 40 2 62 16 62 8 0 15 5 15 10 0 6 -20 10 -45 10 -25 0
-45 -4 -45 -9z"/>
<path d="M2496 1484 c-18 -17 -21 -51 -7 -73 14 -21 71 -18 88 5 15 21 9 64
-10 76 -20 13 -55 9 -71 -8z m64 -40 c0 -29 -3 -34 -24 -34 -35 0 -47 37 -21
64 24 23 45 9 45 -30z"/>
<path d="M2623 1450 c-3 -47 8 -67 20 -36 3 7 19 16 36 19 24 5 31 12 31 31 0
26 -16 36 -58 36 -25 0 -27 -3 -29 -50z m67 15 c0 -9 -9 -15 -25 -15 -16 0
-25 6 -25 15 0 9 9 15 25 15 16 0 25 -6 25 -15z"/>
<path d="M523 1432 c-40 -15 -73 -32 -73 -38 0 -7 8 -10 19 -7 13 3 25 -3 36
-21 19 -28 16 -57 -30 -321 -8 -44 -22 -127 -31 -185 -17 -111 -28 -147 -38
-120 -15 44 -126 508 -126 526 0 12 10 33 21 48 12 15 19 29 16 32 -9 9 -217
-84 -217 -97 0 -4 10 -9 23 -13 41 -10 34 15 210 -684 28 -111 54 -199 57
-195 7 8 22 90 65 363 14 85 32 193 40 240 8 47 27 157 41 245 19 118 32 171
50 202 37 63 39 63 -63 25z"/>
<path d="M1429 1247 c-23 -15 -46 -47 -73 -101 -35 -72 -39 -88 -43 -180 -8
-150 23 -206 107 -190 31 7 50 30 86 104 l22 45 1 -38 c1 -59 15 -77 59 -77
30 0 45 7 69 33 17 17 36 43 42 57 11 23 10 23 -12 -4 -49 -57 -57 -13 -32
159 9 55 18 124 22 153 l6 52 -50 0 c-44 0 -51 -3 -56 -22 -6 -22 -6 -22 -27
5 -27 34 -74 36 -121 4z m122 -34 c26 -65 -31 -309 -78 -340 -25 -16 -26 -16
-45 7 -18 22 -19 34 -13 98 8 86 38 202 61 238 23 34 61 32 75 -3z"/>
<path d="M2460 1240 c-19 -10 -64 -26 -100 -35 -94 -25 -99 -28 -60 -34 31 -5
35 -10 33 -33 -1 -15 -8 -42 -17 -60 -46 -101 -67 -163 -64 -192 3 -31 4 -31
58 -31 42 0 63 6 88 25 17 13 32 28 32 33 0 4 -12 -1 -26 -12 -20 -16 -30 -18
-40 -10 -8 6 -12 14 -11 18 2 3 11 22 19 41 9 19 28 61 42 93 14 32 26 61 26
66 0 18 34 35 62 32 36 -3 35 22 0 27 -25 4 -27 17 -7 52 26 46 19 50 -35 20z"/>
<path d="M1797 1243 c-4 -3 2 -12 13 -20 25 -18 25 -47 1 -149 -29 -122 -51
-218 -51 -226 0 -10 36 -10 78 -2 28 6 32 11 42 63 28 144 123 290 170 261 10
-6 11 -17 3 -46 -59 -218 -62 -236 -53 -254 21 -39 95 -28 147 22 18 17 33 37
33 42 0 6 -7 0 -16 -12 -8 -12 -24 -22 -35 -22 -26 0 -25 32 7 127 14 43 27
103 27 133 2 50 0 55 -25 68 -46 22 -99 1 -149 -58 -23 -27 -45 -47 -49 -45
-5 3 -2 26 6 52 22 74 23 73 -64 73 -43 0 -82 -3 -85 -7z"/>
<path d="M868 1197 c-30 -8 -38 -15 -38 -34 0 -28 -16 -30 -30 -3 -19 35 -63
26 -103 -20 -57 -66 -81 -167 -81 -330 0 -119 3 -141 23 -186 55 -125 154 -79
180 85 8 48 13 45 31 -26 26 -103 127 -43 155 92 6 30 6 30 -12 -5 -10 -19
-25 -35 -33 -35 -13 0 -16 33 -21 205 -3 113 -7 220 -8 238 -1 35 -4 36 -63
19z m-61 -74 c15 -23 18 -50 17 -183 -1 -157 -11 -226 -40 -254 -19 -19 -37
-12 -55 21 -19 35 -19 289 0 358 14 49 36 85 52 85 5 0 17 -12 26 -27z"/>
<path d="M2675 1108 c-123 -44 -221 -205 -153 -252 35 -25 107 -20 150 9 45
30 52 31 45 5 -13 -52 67 -66 143 -25 47 25 50 34 5 13 -53 -24 -46 6 25 102
38 52 69 99 70 104 1 15 -84 33 -106 24 -10 -5 -28 -27 -39 -50 -10 -22 -45
-67 -76 -99 -45 -46 -63 -59 -87 -59 -53 0 -50 41 9 126 42 62 99 98 141 90
31 -5 32 -5 14 9 -23 17 -96 19 -141 3z"/>
<path d="M1955 769 c-137 -10 -243 -22 -365 -43 -103 -18 -267 -55 -295 -66
-11 -5 -45 -14 -75 -21 -30 -7 -62 -16 -70 -20 -8 -4 -53 -20 -100 -34 -47
-15 -98 -33 -115 -40 -16 -7 -84 -37 -150 -65 -128 -56 -319 -153 -347 -178
-25 -21 -22 -48 4 -55 14 -4 38 5 73 29 29 18 57 34 64 34 6 0 11 4 11 8 0 8
235 129 345 177 123 54 245 98 390 140 50 14 104 30 120 35 45 14 168 39 275
55 52 8 123 19 156 25 34 5 92 10 130 11 38 1 80 5 94 9 l25 8 -25 0 c-14 -1
-79 -5 -145 -9z"/>
<path d="M2168 773 c18 -2 45 -2 60 0 15 2 0 4 -33 4 -33 0 -45 -2 -27 -4z"/>
<path d="M2338 763 c12 -2 32 -2 45 0 12 2 2 4 -23 4 -25 0 -35 -2 -22 -4z"/>
<path d="M2535 745 c44 -7 94 -13 110 -13 l30 0 -33 8 c-19 4 -68 10 -110 13
l-77 6 80 -14z"/>
<path d="M2688 723 c6 -2 18 -2 25 0 6 3 1 5 -13 5 -14 0 -19 -2 -12 -5z"/>
<path d="M2749 704 c-9 -11 -10 -20 -2 -32 14 -22 53 -22 67 1 9 15 7 21 -8
33 -25 18 -40 18 -57 -2z"/>
<path d="M1880 637 c0 -8 11 -24 25 -37 14 -13 25 -30 25 -39 0 -11 3 -12 12
-3 8 8 2 21 -25 52 -21 22 -37 34 -37 27z"/>
<path d="M2340 633 c0 -10 -3 -29 -6 -43 -4 -18 -3 -21 4 -10 15 25 23 70 12
70 -5 0 -10 -8 -10 -17z"/>
<path d="M2132 620 c0 -14 2 -19 5 -12 2 6 2 18 0 25 -3 6 -5 1 -5 -13z"/>
<path d="M2414 616 c-3 -8 -4 -23 -2 -33 3 -11 6 -6 9 15 6 34 2 42 -7 18z"/>
<path d="M2242 600 c0 -14 2 -19 5 -12 2 6 2 18 0 25 -3 6 -5 1 -5 -13z"/>
<path d="M1732 580 c0 -19 2 -27 5 -17 2 9 2 25 0 35 -3 9 -5 1 -5 -18z"/>
<path d="M2527 603 c-4 -3 -7 -16 -6 -27 0 -19 1 -19 10 3 10 24 8 36 -4 24z"/>
<path d="M1665 580 c3 -5 8 -10 11 -10 2 0 4 5 4 10 0 6 -5 10 -11 10 -5 0 -7
-4 -4 -10z"/>
<path d="M2121 574 c0 -11 3 -14 6 -6 3 7 2 16 -1 19 -3 4 -6 -2 -5 -13z"/>
<path d="M2010 561 c0 -10 19 -25 25 -20 1 2 -3 10 -11 17 -8 7 -14 8 -14 3z"/>
<path d="M1514 516 c6 -19 12 -33 14 -31 7 6 -9 65 -17 65 -5 0 -3 -15 3 -34z"/>
<path d="M1433 495 c0 -22 2 -30 4 -17 2 12 2 30 0 40 -3 9 -5 -1 -4 -23z"/>
<path d="M1188 440 c2 -33 8 -60 14 -60 6 0 7 21 3 53 -9 73 -21 78 -17 7z"/>
<path d="M1380 465 c0 -8 4 -15 10 -15 5 0 7 7 4 15 -4 8 -8 15 -10 15 -2 0
-4 -7 -4 -15z"/>
<path d="M1291 434 c0 -11 3 -14 6 -6 3 7 2 16 -1 19 -3 4 -6 -2 -5 -13z"/>
<path d="M981 348 c-1 -23 9 -48 21 -48 7 0 7 4 0 13 -5 6 -12 21 -15 32 -3
15 -5 16 -6 3z"/>
<path d="M905 340 c-3 -5 -1 -18 4 -27 9 -16 10 -14 11 10 0 28 -5 34 -15 17z"/>
<path d="M766 285 c8 -36 31 -95 37 -95 5 0 -33 113 -40 120 -2 3 -1 -9 3 -25z"/>
<path d="M846 280 c4 -19 11 -39 16 -45 5 -5 6 5 2 25 -4 19 -11 39 -16 45 -5
5 -6 -5 -2 -25z"/>
<path d="M920 275 c0 -8 4 -15 10 -15 5 0 7 7 4 15 -4 8 -8 15 -10 15 -2 0 -4
-7 -4 -15z"/>
<path d="M631 228 c-3 -22 42 -118 55 -118 11 0 12 3 4 13 -6 6 -22 35 -35 62
-13 28 -24 47 -24 43z"/>
</g>
</svg>
