<svg width="16.000000" height="16.000000" viewBox="0 0 16 16" fill="none" xmlns="http://www.w3.org/2000/svg" xmlns:xlink="http://www.w3.org/1999/xlink">
	<desc>
			Created with Pixso.
	</desc>
	<defs>
		<clipPath id="clip2_17340">
			<rect id="date 5" width="16.000000" height="16.000000" fill="white" fill-opacity="0"/>
		</clipPath>
	</defs>
	<rect id="date 5" width="16.000000" height="16.000000" fill="#FFFFFF" fill-opacity="0"/>
	<g clip-path="url(#clip2_17340)">
		<path id="Vector" d="M14.28 1.71L12.57 1.71L12.57 0.57C12.57 0.25 12.31 0 12 0C11.68 0 11.42 0.25 11.42 0.57L11.42 1.71L4.57 1.71L4.57 0.57C4.57 0.25 4.31 0 4 0C3.68 0 3.42 0.25 3.42 0.57L3.42 1.71L1.71 1.71C0.76 1.71 0 2.48 0 3.42L0 14.28C0 15.23 0.76 16 1.71 16L14.28 16C15.23 16 16 15.23 16 14.28L16 3.42C16 2.48 15.23 1.71 14.28 1.71ZM14.85 14.28C14.85 14.6 14.6 14.85 14.28 14.85L1.71 14.85C1.39 14.85 1.14 14.6 1.14 14.28L1.14 6.85L14.85 6.85L14.85 14.28ZM14.85 5.71L1.14 5.71L1.14 3.42C1.14 3.11 1.39 2.85 1.71 2.85L3.42 2.85L3.42 4C3.42 4.31 3.68 4.57 4 4.57C4.31 4.57 4.57 4.31 4.57 4L4.57 2.85L11.42 2.85L11.42 4C11.42 4.31 11.68 4.57 12 4.57C12.31 4.57 12.57 4.31 12.57 4L12.57 2.85L14.28 2.85C14.6 2.85 14.85 3.11 14.85 3.42L14.85 5.71L14.85 5.71Z" fill="#BBBBBB" fill-opacity="1.000000" fill-rule="nonzero"/>
		<path id="Vector" d="M11.81 8.16C11.59 7.95 11.24 7.95 11.02 8.16L6.85 12.33L4.97 10.45C4.74 10.23 4.38 10.24 4.16 10.46C3.95 10.68 3.95 11.03 4.16 11.26L6.45 13.54C6.67 13.77 7.03 13.77 7.26 13.54L11.83 8.97C12.05 8.74 12.04 8.38 11.81 8.16Z" fill="#BBBBBB" fill-opacity="1.000000" fill-rule="nonzero"/>
	</g>
</svg>
