<svg width="16.000000" height="16.000000" viewBox="0 0 16 16" fill="none" xmlns="http://www.w3.org/2000/svg" xmlns:xlink="http://www.w3.org/1999/xlink">
	<desc>
			Created with Pixso.
	</desc>
	<defs>
		<clipPath id="clip2_17312">
			<rect id="view 1" width="16.000000" height="16.000000" fill="white" fill-opacity="0"/>
		</clipPath>
	</defs>
	<g opacity="0.200000">
		<rect id="view 1" width="16.000000" height="16.000000" fill="#FFFFFF" fill-opacity="0"/>
		<g clip-path="url(#clip2_17312)">
			<path id="Vector" d="M15.89 7.68C15.75 7.49 12.34 2.9 8 2.9C3.65 2.9 0.24 7.49 0.1 7.68C-0.04 7.87 -0.04 8.12 0.1 8.31C0.24 8.5 3.65 13.09 8 13.09C12.34 13.09 15.75 8.5 15.89 8.31C16.03 8.12 16.03 7.87 15.89 7.68ZM8 12.04C4.79 12.04 2.02 8.99 1.19 7.99C2.01 7 4.78 3.95 8 3.95C11.2 3.95 13.97 7 14.8 8C13.98 8.99 11.21 12.04 8 12.04Z" fill="#000000" fill-opacity="1.000000" fill-rule="nonzero"/>
			<path id="Vector" d="M8 4.83C6.25 4.83 4.83 6.25 4.83 7.99C4.83 9.74 6.25 11.16 8 11.16C9.74 11.16 11.16 9.74 11.16 7.99C11.16 6.25 9.74 4.83 8 4.83ZM8 10.1C6.83 10.1 5.88 9.16 5.88 7.99C5.88 6.83 6.83 5.88 8 5.88C9.16 5.88 10.1 6.83 10.1 7.99C10.1 9.16 9.16 10.1 8 10.1Z" fill="#000000" fill-opacity="1.000000" fill-rule="nonzero"/>
		</g>
	</g>
</svg>
