<svg width="21.000000" height="20.000000" viewBox="0 0 21 20" fill="none" xmlns="http://www.w3.org/2000/svg" xmlns:xlink="http://www.w3.org/1999/xlink">
	<desc>
			Created with Pixso.
	</desc>
	<defs/>
	<path id="Vector" d="M20.93 7.59C20.86 7.37 20.67 7.2 20.44 7.17L13.94 6.23L11.03 0.34C10.93 0.13 10.71 0 10.48 0C10.24 0 10.03 0.13 9.93 0.34L7.02 6.23L0.52 7.17C0.29 7.2 0.1 7.37 0.03 7.59C-0.05 7.81 0.01 8.06 0.18 8.22L4.88 12.8L3.77 19.28C3.73 19.51 3.83 19.74 4.02 19.88C4.12 19.96 4.25 20 4.38 20C4.48 20 4.58 19.97 4.66 19.92L10.48 16.87L16.29 19.92C16.5 20.03 16.75 20.02 16.94 19.88C17.13 19.74 17.22 19.51 17.18 19.28L16.07 12.8L20.78 8.22C20.94 8.06 21 7.81 20.93 7.59Z" fill="#969696" fill-opacity="1.000000" fill-rule="nonzero"/>
</svg>
