<svg width="19.000000" height="20.000000" viewBox="0 0 19 20" fill="none" xmlns="http://www.w3.org/2000/svg" xmlns:xlink="http://www.w3.org/1999/xlink">
	<desc>
			Created with Pixso.
	</desc>
	<defs/>
	<path id="Vector" d="M18.08 13.09C17.92 12.88 17.7 12.72 17.46 12.62C17.03 12.45 16.57 12.49 16.18 12.71L13.61 14.2C13.6 14.41 13.55 14.63 13.48 14.85C13.04 16.18 11.62 16.92 10.26 16.56L7.72 15.88C7.41 15.79 7.22 15.47 7.3 15.16C7.39 14.85 7.71 14.66 8.02 14.74L10.6 15.43C11.38 15.64 12.19 15.18 12.4 14.4C12.6 13.62 12.14 12.81 11.36 12.61L7.42 11.55C6.67 11.35 5.88 11.45 5.2 11.84L0.29 14.68C0.01 14.84 -0.09 15.2 0.07 15.48L2.51 19.7C2.59 19.84 2.72 19.93 2.87 19.98C3.02 20.02 3.18 19.99 3.31 19.92L5.53 18.64L10.26 18.94C10.84 18.98 11.41 18.85 11.92 18.56L17.65 15.25C18.4 14.81 18.62 13.81 18.08 13.09Z" fill="#969696" fill-opacity="1.000000" fill-rule="nonzero"/>
	<path id="Vector" d="M5.28 9.37L13.09 9.37C13.42 9.37 13.68 9.11 13.68 8.78C13.68 7.23 12.88 5.86 11.68 5.05C11.03 5.67 10.15 6.05 9.19 6.05C8.22 6.05 7.34 5.67 6.69 5.05C5.49 5.86 4.69 7.23 4.69 8.78C4.69 9.11 4.96 9.37 5.28 9.37Z" fill="#969696" fill-opacity="1.000000" fill-rule="nonzero"/>
	<path id="Vector" d="M11.63 2.44C11.63 3.78 10.54 4.88 9.19 4.88C7.84 4.88 6.75 3.78 6.75 2.44C6.75 1.09 7.84 0 9.19 0C10.54 0 11.63 1.09 11.63 2.44Z" fill="#969696" fill-opacity="1.000000" fill-rule="evenodd"/>
</svg>
