<svg width="20.000000" height="20.000000" viewBox="0 0 20 20" fill="none" xmlns="http://www.w3.org/2000/svg" xmlns:xlink="http://www.w3.org/1999/xlink">
	<desc>
			Created with Pixso.
	</desc>
	<defs>
		<clipPath id="clip2_16069">
			<rect id="checked (1) 13" width="20.000000" height="20.000000" fill="white" fill-opacity="0"/>
		</clipPath>
	</defs>
	<rect id="checked (1) 13" width="20.000000" height="20.000000" fill="#C6C6C6" fill-opacity="0"/>
	<g clip-path="url(#clip2_16069)">
		<path id="Vector" d="M19.42 2.73C19.13 2.43 18.65 2.43 18.36 2.73L9.32 11.75L6.05 8.2C5.77 7.9 5.29 7.88 4.99 8.16C4.68 8.44 4.66 8.92 4.94 9.22L8.74 13.34C8.88 13.5 9.07 13.58 9.28 13.59C9.28 13.59 9.29 13.59 9.29 13.59C9.49 13.59 9.68 13.51 9.82 13.37L19.42 3.8C19.72 3.5 19.72 3.02 19.42 2.73Z" fill="#C6C6C6" fill-opacity="1.000000" fill-rule="nonzero"/>
		<path id="Vector" d="M19.24 9.24C18.83 9.24 18.49 9.58 18.49 10C18.49 14.68 14.68 18.49 10 18.49C5.31 18.49 1.5 14.68 1.5 10C1.5 5.31 5.31 1.5 10 1.5C10.41 1.5 10.75 1.17 10.75 0.75C10.75 0.33 10.41 0 10 0C4.48 0 0 4.48 0 10C0 15.51 4.48 20 10 20C15.51 20 20 15.51 20 10C20 9.58 19.66 9.24 19.24 9.24Z" fill="#C6C6C6" fill-opacity="1.000000" fill-rule="nonzero"/>
	</g>
</svg>
