<svg width="38.000000" height="39.000000" viewBox="0 0 38 39" fill="none" xmlns="http://www.w3.org/2000/svg" xmlns:xlink="http://www.w3.org/1999/xlink">
	<desc>
			Created with Pixso.
	</desc>
	<defs/>
	<path id="Vector" d="M26.68 0L10.31 0C8.73 0 7.45 1.28 7.45 2.86L7.45 36.13C7.45 37.71 8.73 39 10.31 39L26.68 39C28.26 39 29.54 37.71 29.54 36.13L29.54 2.86C29.54 1.28 28.26 0 26.68 0ZM8.75 5.2L28.25 5.2L28.25 29.89L8.75 29.89L8.75 5.2ZM10.31 1.29L26.68 1.29C27.54 1.29 28.25 2 28.25 2.86L28.25 3.89L8.75 3.89L8.75 2.86C8.75 2 9.45 1.29 10.31 1.29ZM26.68 37.7L10.31 37.7C9.45 37.7 8.75 36.99 8.75 36.13L8.75 31.2L28.25 31.2L28.25 36.13C28.25 36.99 27.54 37.7 26.68 37.7Z" fill="#9A9A9A" fill-opacity="1.000000" fill-rule="nonzero"/>
	<path id="Vector" d="M18.5 31.85C17.06 31.85 15.9 33.01 15.9 34.45C15.9 35.88 17.06 37.05 18.5 37.05C19.93 37.05 21.1 35.88 21.1 34.45C21.1 33.01 19.93 31.85 18.5 31.85ZM18.5 35.75C17.78 35.75 17.2 35.16 17.2 34.45C17.2 33.73 17.78 33.14 18.5 33.14C19.21 33.14 19.8 33.73 19.8 34.45C19.8 35.16 19.21 35.75 18.5 35.75Z" fill="#9A9A9A" fill-opacity="1.000000" fill-rule="nonzero"/>
	<path id="Vector" d="M15.9 3.25L18.5 3.25C18.85 3.25 19.15 2.95 19.15 2.6C19.15 2.24 18.85 1.95 18.5 1.95L15.9 1.95C15.54 1.95 15.25 2.24 15.25 2.6C15.25 2.95 15.54 3.25 15.9 3.25Z" fill="#9A9A9A" fill-opacity="1.000000" fill-rule="nonzero"/>
	<path id="Vector" d="M20.45 3.25L21.09 3.25C21.45 3.25 21.75 2.95 21.75 2.6C21.75 2.24 21.45 1.95 21.09 1.95L20.45 1.95C20.09 1.95 19.79 2.24 19.79 2.6C19.79 2.95 20.09 3.25 20.45 3.25Z" fill="#9A9A9A" fill-opacity="1.000000" fill-rule="nonzero"/>
	<path id="Vector" d="M35.79 2.96C35.54 2.71 35.13 2.71 34.87 2.96C34.62 3.22 34.62 3.63 34.87 3.88C37.3 6.31 37.3 10.26 34.87 12.69C34.62 12.95 34.62 13.36 34.87 13.61C35 13.74 35.17 13.8 35.33 13.8C35.5 13.8 35.67 13.74 35.79 13.61C38.73 10.68 38.73 5.9 35.79 2.96Z" fill="#9A9A9A" fill-opacity="1.000000" fill-rule="nonzero"/>
	<path id="Vector" d="M33.06 4.44C32.8 4.19 32.39 4.19 32.14 4.44C31.88 4.7 31.88 5.11 32.14 5.36C32.94 6.17 33.38 7.24 33.38 8.38C33.38 9.52 32.94 10.59 32.14 11.39C31.88 11.65 31.88 12.06 32.14 12.31C32.26 12.44 32.43 12.5 32.6 12.5C32.76 12.5 32.93 12.44 33.06 12.31C34.11 11.26 34.68 9.87 34.68 8.38C34.68 6.89 34.11 5.49 33.06 4.44Z" fill="#9A9A9A" fill-opacity="1.000000" fill-rule="nonzero"/>
	<path id="Vector" d="M2.12 3.88C2.37 3.63 2.37 3.22 2.12 2.96C1.86 2.71 1.45 2.71 1.2 2.96C-1.74 5.9 -1.74 10.68 1.2 13.61C1.32 13.74 1.49 13.8 1.66 13.8C1.82 13.8 1.99 13.74 2.12 13.61C2.37 13.36 2.37 12.95 2.12 12.69C-0.31 10.26 -0.31 6.31 2.12 3.88Z" fill="#9A9A9A" fill-opacity="1.000000" fill-rule="nonzero"/>
	<path id="Vector" d="M4.85 4.26C4.6 4.01 4.19 4.01 3.93 4.26C2.88 5.31 2.31 6.71 2.31 8.2C2.31 9.69 2.88 11.08 3.93 12.13C4.06 12.26 4.23 12.32 4.39 12.32C4.56 12.32 4.73 12.26 4.85 12.13C5.11 11.88 5.11 11.47 4.85 11.21C4.05 10.41 3.61 9.34 3.61 8.2C3.61 7.06 4.05 5.99 4.85 5.18C5.11 4.93 5.11 4.52 4.85 4.26Z" fill="#9A9A9A" fill-opacity="1.000000" fill-rule="nonzero"/>
</svg>
