<svg width="20.000000" height="20.000000" viewBox="0 0 20 20" fill="none" xmlns="http://www.w3.org/2000/svg" xmlns:xlink="http://www.w3.org/1999/xlink">
	<desc>
			Created with Pixso.
	</desc>
	<defs>
		<clipPath id="clip2_15492">
			<rect id="instagram (1) 1" width="20.000000" height="20.000000" fill="white" fill-opacity="0"/>
		</clipPath>
	</defs>
	<g opacity="0.500000">
		<rect id="instagram (1) 1" width="20.000000" height="20.000000" fill="#FFFFFF" fill-opacity="0"/>
		<g clip-path="url(#clip2_15492)">
			<path id="Vector" d="M19.98 5.87C19.93 4.81 19.76 4.08 19.51 3.45C19.26 2.78 18.87 2.18 18.35 1.68C17.85 1.17 17.25 0.77 16.58 0.52C15.95 0.28 15.22 0.1 14.16 0.06C13.09 0.01 12.75 0 10.03 0C7.32 0 6.98 0.01 5.91 0.05C4.85 0.1 4.12 0.27 3.48 0.52C2.81 0.77 2.21 1.16 1.71 1.68C1.2 2.18 0.81 2.78 0.56 3.44C0.31 4.08 0.14 4.81 0.09 5.87C0.04 6.94 0.03 7.28 0.03 10C0.03 12.71 0.04 13.05 0.09 14.12C0.14 15.18 0.31 15.91 0.55 16.55C0.81 17.22 1.2 17.82 1.71 18.32C2.21 18.83 2.82 19.22 3.48 19.47C4.12 19.72 4.84 19.89 5.91 19.94C6.97 19.98 7.31 20 10.03 20C12.74 20 13.08 19.98 14.15 19.94C15.21 19.89 15.94 19.72 16.58 19.47C17.92 18.95 18.98 17.89 19.5 16.55C19.75 15.91 19.92 15.18 19.97 14.12C20.01 13.05 20.03 12.71 20.03 10C20.03 7.28 20.02 6.94 19.98 5.87ZM18.17 14.04C18.13 15.02 17.97 15.54 17.83 15.9C17.49 16.77 16.8 17.46 15.93 17.8C15.58 17.93 15.05 18.1 14.08 18.14C13.02 18.19 12.71 18.2 10.04 18.2C7.37 18.2 7.05 18.19 6 18.14C5.02 18.1 4.49 17.93 4.14 17.8C3.71 17.64 3.31 17.38 2.99 17.05C2.66 16.73 2.41 16.33 2.25 15.9C2.11 15.55 1.94 15.02 1.9 14.04C1.85 12.99 1.84 12.67 1.84 10C1.84 7.34 1.85 7.02 1.9 5.96C1.94 4.99 2.11 4.46 2.25 4.11C2.41 3.68 2.66 3.28 3 2.96C3.32 2.63 3.71 2.37 4.14 2.21C4.5 2.08 5.03 1.91 6 1.87C7.05 1.82 7.37 1.81 10.04 1.81C12.71 1.81 13.03 1.82 14.08 1.87C15.06 1.91 15.58 2.08 15.94 2.21C16.37 2.37 16.76 2.63 17.08 2.96C17.42 3.28 17.67 3.68 17.83 4.11C17.97 4.46 18.13 4.99 18.17 5.96C18.22 7.02 18.23 7.34 18.23 10C18.23 12.67 18.22 12.99 18.17 14.04Z" fill="#000000" fill-opacity="1.000000" fill-rule="nonzero"/>
			<path id="Vector" d="M10.03 4.86C7.2 4.86 4.89 7.16 4.89 10C4.89 12.83 7.2 15.13 10.03 15.13C12.87 15.13 15.17 12.83 15.17 10C15.17 7.16 12.87 4.86 10.03 4.86ZM10.03 13.33C8.19 13.33 6.7 11.84 6.7 10C6.7 8.16 8.19 6.66 10.03 6.66C11.87 6.66 13.37 8.16 13.37 10C13.37 11.84 11.87 13.33 10.03 13.33Z" fill="#000000" fill-opacity="1.000000" fill-rule="nonzero"/>
			<path id="Vector" d="M16.57 4.66C16.57 5.32 16.04 5.86 15.37 5.86C14.71 5.86 14.17 5.32 14.17 4.66C14.17 3.99 14.71 3.46 15.37 3.46C16.04 3.46 16.57 3.99 16.57 4.66Z" fill="#000000" fill-opacity="1.000000" fill-rule="nonzero"/>
		</g>
	</g>
</svg>
