<svg width="20.000000" height="20.000000" viewBox="0 0 20 20" fill="none" xmlns="http://www.w3.org/2000/svg" xmlns:xlink="http://www.w3.org/1999/xlink">
	<desc>
			Created with Pixso.
	</desc>
	<defs/>
	<path id="Vector" d="M15.74 0.69C15.25 0.22 14.61 0 13.97 0C13.25 0 12.52 0.28 11.97 0.82L11.74 1.06L11.5 0.82C10.96 0.28 10.23 0 9.51 0C8.87 0 8.23 0.22 7.73 0.69C6.64 1.72 6.62 3.44 7.67 4.5L11.74 8.56L15.8 4.5C16.86 3.44 16.84 1.72 15.74 0.69Z" fill="#969696" fill-opacity="1.000000" fill-rule="nonzero"/>
	<path id="Vector" d="M19.73 10.63C19.11 10.21 18.37 10.33 17.72 10.7C17.07 11.08 13.33 14.28 13.33 14.28L9.64 14.28C9.47 14.28 9.29 14.09 9.29 13.92C9.29 13.72 9.46 13.56 9.64 13.56L11.9 13.56C12.69 13.56 13.57 13.05 13.57 12.13C13.57 11.16 12.69 10.7 11.9 10.7C10.53 10.7 10.26 10.71 10.26 10.71C9.71 10.71 9.16 10.68 8.73 10.45C8.16 10.15 7.5 9.99 6.8 9.99C5.62 9.99 4.56 10.46 3.84 11.2L0 14.99L4.28 19.27L5.71 17.84L12.94 17.84C13.66 17.84 14.35 17.58 14.89 17.1L19.78 11.61C20.08 11.34 20.06 10.85 19.73 10.63Z" fill="#969696" fill-opacity="1.000000" fill-rule="nonzero"/>
</svg>
