<svg width="19.000000" height="18.000000" viewBox="0 0 19 18" fill="none" xmlns="http://www.w3.org/2000/svg" xmlns:xlink="http://www.w3.org/1999/xlink">
	<desc>
			Created with Pixso.
	</desc>
	<defs/>
	<path id="Vector" d="M18.72 6.83C18.65 6.63 18.48 6.48 18.27 6.45L12.46 5.6L9.86 0.3C9.77 0.11 9.58 0 9.37 0C9.16 0 8.97 0.11 8.88 0.3L6.28 5.6L0.47 6.45C0.26 6.48 0.09 6.63 0.02 6.83C-0.04 7.03 0.01 7.25 0.16 7.4L4.37 11.52L3.37 17.35C3.34 17.56 3.42 17.77 3.59 17.89C3.69 17.96 3.8 18 3.92 18C4 18 4.09 17.97 4.17 17.93L9.37 15.18L14.57 17.93C14.75 18.03 14.98 18.01 15.15 17.89C15.32 17.77 15.4 17.56 15.37 17.35L14.37 11.52L18.58 7.4C18.73 7.25 18.78 7.03 18.72 6.83Z" fill="#FFD600" fill-opacity="1.000000" fill-rule="nonzero"/>
</svg>
